# xmcd CD database file
#
# Track frame offsets:
#	150
#	17362
#	45772
#	62625
#	83755
#	103290
#	126747
#	147355
#	163572
#	190217
#	216027
#	245687
#	260270
#	273535
#	287661
#	311423
#
# Disc length: 4447 seconds
#
# Revision: 0
# Processed by: cddbd v1.5.2PL0 Copyright (c) Steve Scherf et al.
# Submitted via: CDex 2.23
#
DISCID=e5115d10
DTITLE=Ella and Louis - Together CD1
DYEAR=2009
DGENRE=Jazz
TTITLE0=Can't We Be Friends
TTITLE1=Isn't This a Lovely Day
TTITLE2=Moonlight in Vermont
TTITLE3=They Can't Take That Away From Me
TTITLE4=Under A Blanket Of Blue
TTITLE5=Tenderly
TTITLE6=A Foggy Day
TTITLE7=Stars Fell On Alabama
TTITLE8=Check To Check
TTITLE9=The Nearness Of You
TTITLE10=April in Paris
TTITLE11=The Frim Fram Sauce
TTITLE12=You Won't Be Satisfied (Until You Break My Heart)
TTITLE13=Dream A Little Dream Of Me
TTITLE14=Stompin' At The Savoy
TTITLE15=Summertime
EXTD=YEAR: 2009
EXTT0=
EXTT1=
EXTT2=
EXTT3=
EXTT4=
EXTT5=
EXTT6=
EXTT7=
EXTT8=
EXTT9=
EXTT10=
EXTT11=
EXTT12=
EXTT13=
EXTT14=
EXTT15=
PLAYORDER=
